<svg width="312" height="464" viewBox="0 0 312 464" fill="none" xmlns="http://www.w3.org/2000/svg">
<path d="M279.624 9.84374H288.757C296.489 9.84374 302.757 16.1118 302.757 23.8437V154.542M36.7591 9.84354H22.7566C15.0246 9.84354 8.75659 16.1116 8.75659 23.8435V154.542M36.7591 455.364H22.7566C15.0246 455.364 8.75659 449.096 8.75659 441.364V299.241M279.624 455.364H288.757C296.489 455.364 302.757 449.096 302.757 441.364V299.241M94.3017 455.364H215.737M94.3017 8.60254H215.737" stroke="white" stroke-width="2"/>
<g filter="url(#filter0_f_269_24)">
<path d="M279.624 9.84374H288.757C296.489 9.84374 302.757 16.1118 302.757 23.8437V154.542M36.7591 9.84354H22.7566C15.0246 9.84354 8.75659 16.1116 8.75659 23.8435V154.542M36.7591 455.364H22.7566C15.0246 455.364 8.75659 449.096 8.75659 441.364V299.241M279.624 455.364H288.757C296.489 455.364 302.757 449.096 302.757 441.364V299.241M94.3017 455.364H215.737M94.3017 8.60254H215.737" stroke="white" stroke-width="2"/>
</g>
<defs>
<filter id="filter0_f_269_24" x="0.356592" y="0.202539" width="310.8" height="463.561" filterUnits="userSpaceOnUse" color-interpolation-filters="sRGB">
<feFlood flood-opacity="0" result="BackgroundImageFix"/>
<feBlend mode="normal" in="SourceGraphic" in2="BackgroundImageFix" result="shape"/>
<feGaussianBlur stdDeviation="3.7" result="effect1_foregroundBlur_269_24"/>
</filter>
</defs>
</svg>
