<svg width="312" height="546" viewBox="0 0 312 546" fill="none" xmlns="http://www.w3.org/2000/svg">
<path d="M279.863 10.8096H288.995C296.727 10.8096 302.995 17.0776 302.995 24.8096V181.82M36.9978 10.8093H22.9952C15.2633 10.8093 8.99524 17.0773 8.99524 24.8093V181.82M36.9978 537.343H22.9952C15.2633 537.343 8.99524 531.075 8.99524 523.343V352.831M279.863 537.343H288.995C296.727 537.343 302.995 531.075 302.995 523.343V352.831M94.5404 537.343H215.975M94.5404 9.34265H215.975" stroke="white" stroke-width="2"/>
<g filter="url(#filter0_f_269_24)">
<path d="M279.863 10.8096H288.995C296.727 10.8096 302.995 17.0776 302.995 24.8096V181.82M36.9978 10.8093H22.9952C15.2633 10.8093 8.99524 17.0773 8.99524 24.8093V181.82M36.9978 537.343H22.9952C15.2633 537.343 8.99524 531.075 8.99524 523.343V352.831M279.863 537.343H288.995C296.727 537.343 302.995 531.075 302.995 523.343V352.831M94.5404 537.343H215.975M94.5404 9.34265H215.975" stroke="white" stroke-width="2"/>
</g>
<defs>
<filter id="filter0_f_269_24" x="0.595239" y="0.942651" width="310.8" height="544.8" filterUnits="userSpaceOnUse" color-interpolation-filters="sRGB">
<feFlood flood-opacity="0" result="BackgroundImageFix"/>
<feBlend mode="normal" in="SourceGraphic" in2="BackgroundImageFix" result="shape"/>
<feGaussianBlur stdDeviation="3.7" result="effect1_foregroundBlur_269_24"/>
</filter>
</defs>
</svg>
