<svg width="114" height="77" viewBox="0 0 114 77" fill="none" xmlns="http://www.w3.org/2000/svg">
<path d="M14.2531 52.5992V41.9637H2.86247V36.6774H14.2531V26.042H19.5394V36.6774H30.9301V41.9637H19.5394V52.5992H14.2531ZM41.1614 61.9131L34.113 15.6582H40.7209L44.1192 42.9706L44.3709 47.4388H44.7485L45.0002 42.9706L48.3985 15.6582H55.0064L47.958 61.9131H41.1614ZM58.4868 61.9131V15.6582H65.2834V61.9131H58.4868ZM70.348 61.9131V15.6582H77.2705C79.6199 15.6582 81.6442 16.0778 83.3434 16.9168C85.0635 17.735 86.3851 19.0251 87.3081 20.7872C88.2521 22.5492 88.7241 24.8253 88.7241 27.6153C88.7241 29.8388 88.4304 31.7792 87.843 33.4364C87.2766 35.0937 86.1648 36.4467 84.5076 37.4955C86.1858 38.4185 87.392 39.887 88.1262 41.9008C88.8604 43.8936 89.2275 46.2011 89.2275 48.8233C89.2275 51.4035 88.808 53.6795 87.9689 55.6514C87.1508 57.6232 85.9341 59.1651 84.3188 60.2769C82.7246 61.3677 80.7527 61.9131 78.4032 61.9131H70.348ZM77.1446 55.1794C79.2004 55.1794 80.5534 54.571 81.2037 53.3544C81.854 52.1167 82.1791 50.3546 82.1791 48.0681C82.1791 45.7396 81.854 43.9775 81.2037 42.7818C80.5534 41.5651 79.2004 40.9568 77.1446 40.9568V55.1794ZM77.1446 34.7265C79.0535 34.7265 80.3646 34.2021 81.0778 33.1533C81.812 32.1044 82.1791 30.5521 82.1791 28.4963C82.1791 26.4196 81.8016 24.8882 81.0464 23.9023C80.3122 22.8954 79.0116 22.3919 77.1446 22.3919V34.7265ZM93.2714 61.9131V15.6582H108.816V22.6436H100.068V35.1041H106.361V41.9008H100.068V54.9277H108.816V61.9131H93.2714Z" fill="#797979"/>
<path d="M16.5158 52.5992V41.9637H5.12516V36.6774H16.5158V26.042H21.8021V36.6774H33.1927V41.9637H21.8021V52.5992H16.5158ZM43.4241 61.9131L36.3757 15.6582H42.9836L46.3819 42.9706L46.6336 47.4388H47.0112L47.2629 42.9706L50.6612 15.6582H57.2691L50.2207 61.9131H43.4241ZM60.7495 61.9131V15.6582H67.5461V61.9131H60.7495ZM72.6107 61.9131V15.6582H79.5332C81.8826 15.6582 83.9069 16.0778 85.6061 16.9168C87.3262 17.735 88.6478 19.0251 89.5708 20.7872C90.5148 22.5492 90.9867 24.8253 90.9867 27.6153C90.9867 29.8388 90.6931 31.7792 90.1057 33.4364C89.5393 35.0937 88.4275 36.4467 86.7703 37.4955C88.4485 38.4185 89.6547 39.887 90.3889 41.9008C91.1231 43.8936 91.4902 46.2011 91.4902 48.8233C91.4902 51.4035 91.0707 53.6795 90.2316 55.6514C89.4135 57.6232 88.1968 59.1651 86.5815 60.2769C84.9873 61.3677 83.0154 61.9131 80.6659 61.9131H72.6107ZM79.4073 55.1794C81.4631 55.1794 82.8161 54.571 83.4664 53.3544C84.1167 52.1167 84.4418 50.3546 84.4418 48.0681C84.4418 45.7396 84.1167 43.9775 83.4664 42.7818C82.8161 41.5651 81.4631 40.9568 79.4073 40.9568V55.1794ZM79.4073 34.7265C81.3162 34.7265 82.6273 34.2021 83.3405 33.1533C84.0747 32.1044 84.4418 30.5521 84.4418 28.4963C84.4418 26.4196 84.0643 24.8882 83.3091 23.9023C82.5749 22.8954 81.2743 22.3919 79.4073 22.3919V34.7265ZM95.5341 61.9131V15.6582H111.078V22.6436H102.331V35.1041H108.624V41.9008H102.331V54.9277H111.078V61.9131H95.5341Z" fill="white"/>
</svg>
